<svg xmlns="http://www.w3.org/2000/svg" viewBox="0 0 71.37 71.28"><defs><style>.cls-1{fill:red;}</style></defs><title>Asset 3</title><g id="Layer_2" data-name="Layer 2"><g id="Layer_1-2" data-name="Layer 1"><path class="cls-1" d="M15.68,6l.66-.39,2,3.41a1.14,1.14,0,0,0,1.68.35,1.14,1.14,0,0,0,.49-1.65l-2-3.41.66-.39,2,3.36a1.81,1.81,0,0,1-.8,2.63,1.81,1.81,0,0,1-2.69-.55Z"/><path class="cls-1" d="M24.24,2.64a4.7,4.7,0,0,0-1.5.28c-.84.33-1,.78-.73,1.32s.58.74,1.55.47c1.32-.37,1.9,0,2.2.78.39,1,.14,1.79-1.1,2.29a5.67,5.67,0,0,1-2,.38l0-.66a4.84,4.84,0,0,0,1.67-.27c.85-.34,1-.8.73-1.39s-.62-.69-1.74-.39a1.47,1.47,0,0,1-2-.86,1.61,1.61,0,0,1,1.11-2.22A4.24,4.24,0,0,1,24.2,2Z"/><path class="cls-1" d="M29.24,1.06l-2.5.6.44,1.86L29.24,3l.14.6-2.06.49L27.78,6l2.5-.6.14.6-3.24.77L25.85,1.23,29.09.45Z"/><path class="cls-1" d="M31.28,5.87,30.81.17,32.76,0C34-.1,34.91,1.08,35,2.68s-.48,2.91-1.72,3ZM32,5.18l1.08-.09c.9-.08,1.31-.77,1.18-2.35S33.51.57,32.61.64l-1,.08Z"/><path class="cls-1" d="M42.89.55l.74.2-1,3.84A1.14,1.14,0,0,0,43.54,6a1.14,1.14,0,0,0,1.52-.8l1-3.84.74.2-1,3.78a1.81,1.81,0,0,1-2.44,1.27,1.81,1.81,0,0,1-1.49-2.31Z"/><path class="cls-1" d="M51.25,4.36A4.69,4.69,0,0,0,50,3.48c-.82-.37-1.22-.14-1.46.4s-.13.93.75,1.44c1.18.68,1.31,1.38,1,2.12a1.59,1.59,0,0,1-2.41.81,5.64,5.64,0,0,1-1.65-1.16l.46-.48a4.86,4.86,0,0,0,1.36,1c.84.37,1.24.13,1.5-.45s.06-.93-.93-1.51a1.47,1.47,0,0,1-.8-2,1.61,1.61,0,0,1,2.36-.75,4.23,4.23,0,0,1,1.5,1Z"/><path class="cls-1" d="M55.85,6.81,53.68,5.44l-1,1.61,1.79,1.13-.33.52L52.34,7.57l-1,1.65,2.17,1.37-.33.53L50.32,9.34l3-4.83,2.82,1.77Z"/><path class="cls-1" d="M53.86,11.64,57.6,7.31l1.48,1.27c.94.81.74,2.29-.31,3.5s-2.41,1.7-3.36.89Zm1,0,.82.7c.68.59,1.47.4,2.5-.8s1-2.06.35-2.64l-.75-.65Z"/><path class="cls-1" d="M65.77,16.19l.38.67-3.46,2a1.14,1.14,0,0,0-.38,1.68,1.14,1.14,0,0,0,1.64.53l3.46-2,.38.67-3.41,1.94a1.82,1.82,0,0,1-2.62-.85,1.82,1.82,0,0,1,.61-2.69Z"/><path class="cls-1" d="M68.9,24.83a4.68,4.68,0,0,0-.25-1.5c-.32-.84-.76-1-1.3-.76s-.75.56-.5,1.54c.34,1.32-.07,1.9-.82,2.18-1,.37-1.79.11-2.27-1.15a5.68,5.68,0,0,1-.33-2h.66a4.85,4.85,0,0,0,.23,1.67c.32.86.78,1,1.37.75s.7-.61.43-1.73a1.47,1.47,0,0,1,.9-2A1.61,1.61,0,0,1,69.22,23a4.24,4.24,0,0,1,.31,1.8Z"/><path class="cls-1" d="M70.38,29.85l-.54-2.5-1.86.4.45,2.07-.6.13-.45-2.07-1.91.41.54,2.5-.61.13-.71-3.25,5.58-1.21L71,29.71Z"/><path class="cls-1" d="M65.53,31.79l5.71-.36.12,2c.08,1.24-1.12,2.13-2.72,2.23s-2.9-.54-3-1.78Zm.67.73.07,1.08c.06.9.74,1.33,2.32,1.23s2.19-.7,2.14-1.6l-.06-1Z"/><path class="cls-1" d="M70.61,43.47l-.21.74-3.82-1.09a1.27,1.27,0,0,0-.7,2.44l3.82,1.09-.21.74-3.76-1.08a2,2,0,0,1,1.12-3.91Z"/><path class="cls-1" d="M66.64,51.75a4.7,4.7,0,0,0,.9-1.23c.38-.81.16-1.22-.37-1.46s-.93-.14-1.45.72c-.71,1.17-1.4,1.28-2.14.94a1.59,1.59,0,0,1-.76-2.42A5.65,5.65,0,0,1,64,46.67l.47.47a4.88,4.88,0,0,0-1,1.33c-.39.83-.15,1.24.42,1.51s.93.08,1.53-.9a1.47,1.47,0,0,1,2.06-.75,1.61,1.61,0,0,1,.71,2.38,4.24,4.24,0,0,1-1.07,1.48Z"/><path class="cls-1" d="M64.09,56.34l1.41-2.14-1.59-1-1.16,1.77-.51-.34,1.16-1.77-1.63-1.07-1.41,2.14-.52-.34,1.83-2.78,4.78,3.14-1.83,2.78Z"/><path class="cls-1" d="M59.3,54.23l4.25,3.82-1.3,1.45c-.83.92-2.3.69-3.49-.38s-1.65-2.45-.82-3.37Zm0,1-.72.8c-.6.67-.42,1.46.75,2.52s2,1.08,2.63.41l.66-.74Z"/><path class="cls-1" d="M54.53,66l-.67.37L52,62.9a1.27,1.27,0,0,0-2.23,1.21l1.9,3.49L51,68l-1.87-3.44a2,2,0,0,1,3.57-1.95Z"/><path class="cls-1" d="M45.82,69a4.71,4.71,0,0,0,1.51-.22c.85-.3,1-.74.79-1.29s-.54-.76-1.53-.53c-1.33.32-1.9-.1-2.17-.87-.35-1-.07-1.8,1.19-2.24a5.64,5.64,0,0,1,2-.29v.66a4.86,4.86,0,0,0-1.67.2c-.87.3-1,.76-.78,1.35s.6.71,1.72.46a1.47,1.47,0,0,1,2,.94,1.61,1.61,0,0,1-1.2,2.17,4.23,4.23,0,0,1-1.8.27Z"/><path class="cls-1" d="M40.76,70.38l2.52-.49L42.91,68l-2.08.41-.12-.6,2.08-.41-.37-1.92L39.9,66l-.12-.61,3.27-.64,1.09,5.61L40.88,71Z"/><path class="cls-1" d="M38.91,65.49l.24,5.71-2,.08c-1.24.05-2.1-1.16-2.17-2.76s.6-2.89,1.84-2.94Zm-.74.65-1.08,0c-.9,0-1.34.71-1.27,2.3s.65,2.21,1.55,2.17l1,0Z"/><path class="cls-1" d="M27.15,70.34l-.73-.22,1.17-3.8a1.27,1.27,0,0,0-2.43-.74L24,69.37l-.73-.22,1.15-3.74a1.82,1.82,0,0,1,2.49-1.18,1.82,1.82,0,0,1,1.4,2.37Z"/><path class="cls-1" d="M18.94,66.19a4.69,4.69,0,0,0,1.21.92c.81.4,1.21.18,1.47-.34s.16-.92-.69-1.46c-1.16-.73-1.25-1.43-.9-2.15a1.59,1.59,0,0,1,2.44-.72,5.67,5.67,0,0,1,1.61,1.22l-.48.46a4.84,4.84,0,0,0-1.31-1.06c-.82-.4-1.24-.18-1.51.39s-.09.93.87,1.55a1.47,1.47,0,0,1,.71,2.07,1.61,1.61,0,0,1-2.39.66,4.23,4.23,0,0,1-1.46-1.1Z"/><path class="cls-1" d="M14.42,63.55,16.54,65l1.08-1.57-1.74-1.2.35-.5L18,62.93l1.11-1.61L17,59.87l.35-.51,2.74,1.89L16.82,66l-2.74-1.89Z"/><path class="cls-1" d="M16.61,58.81,12.7,63l-1.43-1.33c-.91-.85-.64-2.32.45-3.49s2.48-1.6,3.39-.75Zm-1-.07L14.84,58c-.66-.62-1.45-.45-2.53.7s-1.12,2-.46,2.63l.72.68Z"/><path class="cls-1" d="M4.89,53.76l-.35-.68,3.53-1.82a1.14,1.14,0,0,0,.45-1.66A1.14,1.14,0,0,0,6.91,49L3.38,50.83,3,50.15l3.48-1.79a1.81,1.81,0,0,1,2.58,1A1.81,1.81,0,0,1,8.37,52Z"/><path class="cls-1" d="M2.12,45a4.68,4.68,0,0,0,.19,1.51c.28.85.72,1,1.27.81s.77-.53.56-1.52c-.29-1.34.14-1.9.91-2.15,1-.33,1.8,0,2.22,1.24a5.67,5.67,0,0,1,.25,2l-.66,0a4.86,4.86,0,0,0-.17-1.68c-.29-.87-.74-1-1.34-.81s-.73.58-.5,1.71c.2,1,0,1.65-1,2a1.61,1.61,0,0,1-2.14-1.24A4.22,4.22,0,0,1,1.5,45Z"/><path class="cls-1" d="M.85,39.94l.44,2.53,1.88-.33L2.8,40.06l.6-.1L3.77,42l1.92-.33-.44-2.53.61-.11.57,3.28-5.63,1L.23,40Z"/><path class="cls-1" d="M5.76,38.19,0,38.33l0-2c0-1.24,1.2-2.08,2.81-2.12s2.88.65,2.91,1.89Zm-.64-.75,0-1.08c0-.9-.69-1.35-2.27-1.32s-2.22.61-2.2,1.51l0,1Z"/><path class="cls-1" d="M1.16,26.31l.24-.73,3.78,1.25A1.14,1.14,0,0,0,6.68,26,1.14,1.14,0,0,0,6,24.43L2.2,23.18l.24-.73,3.72,1.23a1.82,1.82,0,0,1,1.12,2.51,1.81,1.81,0,0,1-2.4,1.35Z"/><path class="cls-1" d="M5.47,18.2a4.7,4.7,0,0,0-1,1.19c-.41.8-.21,1.21.31,1.48s.92.18,1.48-.66c.75-1.14,1.45-1.22,2.17-.85a1.59,1.59,0,0,1,.67,2.45,5.65,5.65,0,0,1-1.25,1.58l-.45-.48a4.85,4.85,0,0,0,1.08-1.29c.42-.82.2-1.23-.36-1.52s-.92-.11-1.57.84a1.47,1.47,0,0,1-2.09.67,1.61,1.61,0,0,1-.61-2.4A4.24,4.24,0,0,1,5,17.76Z"/><path class="cls-1" d="M8.21,13.73l-1.5,2.08,1.55,1.11L9.5,15.21l.5.36L8.76,17.28l1.59,1.14,1.5-2.08.5.36-1.94,2.7L5.77,16.07l1.94-2.7Z"/><path class="cls-1" d="M12.9,16,8.8,12l1.36-1.4c.87-.89,2.33-.6,3.48.52s1.55,2.51.69,3.4ZM13,15l.75-.77c.63-.65.48-1.44-.65-2.54s-2-1.16-2.62-.51l-.69.71Z"/></g></g></svg>