<svg xmlns="http://www.w3.org/2000/svg" viewBox="0 0 18.12 17.01"><defs><style>.cls-1{fill:#333;}</style></defs><title>Asset 1</title><g id="Layer_2" data-name="Layer 2"><g id="Layer_1-2" data-name="Layer 1"><path class="cls-1" d="M17.75,2.91a1.72,1.72,0,0,0-1.33-.62H5.27a1.69,1.69,0,0,0-.88.25l-.57-2A.76.76,0,0,0,3.09,0H.57A.57.57,0,0,0,0,.57V.63a.57.57,0,0,0,.57.57H2.74L3.84,5.11l1.52,5.39a2,2,0,0,0,.35,3.92,1.95,1.95,0,1,0,3.78.64,1.92,1.92,0,0,0-.11-.64h2.28a1.95,1.95,0,1,0,1.81-1.31H5.86a.7.7,0,0,1-.7-.66.68.68,0,0,1,.68-.71h9.08a1.69,1.69,0,0,0,1.63-1.28l1.51-6.09A1.67,1.67,0,0,0,17.75,2.91ZM13.51,14.42a.64.64,0,1,1-.64.64A.64.64,0,0,1,13.51,14.42Zm-6,0a.64.64,0,1,1-.64.64A.64.64,0,0,1,7.55,14.42ZM5.2,5.11l-.29-1A.36.36,0,0,1,5,3.75a.37.37,0,0,1,.3-.15H6.49l.33,1.51H5.2Zm.37,1.3H7.11l.31,1.4H6Zm1.42,4a.38.38,0,0,1-.36-.28l-.3-1H7.7L8,10.44H7Zm3.26,0H9.33L9,9.12h1.21v1.32Zm0-2.63H8.75l-.31-1.4h1.81Zm0-2.71H8.16L7.83,3.59h2.42Zm2.34,5.34h-1V9.12h1.31Zm.55-2.63H11.56V6.41h1.88ZM11.56,5.11V3.59H14l-.32,1.51Zm3.74,5.05a.38.38,0,0,1-.37.29h-1l.28-1.32h1.35Zm.58-2.35h-1.4l.3-1.4h1.45Zm.93-3.75-.26,1H15l.32-1.51h1.07a.36.36,0,0,1,.3.15A.36.36,0,0,1,16.8,4.06Z"/></g></g></svg>